<svg width="176" height="132" viewBox="0 0 176 132" fill="none" xmlns="http://www.w3.org/2000/svg">
<path d="M171.2 0H4.8C2.14903 0 0 2.14903 0 4.8V127.2C0 129.851 2.14903 132 4.8 132H171.2C173.851 132 176 129.851 176 127.2V4.8C176 2.14903 173.851 0 171.2 0Z" fill="#F3F5F8"/>
<path d="M0 4.8C0 2.14903 2.14903 0 4.8 0H171.2C173.851 0 176 2.14903 176 4.8V19.2H0V4.8Z" fill="#E0E7EC"/>
<path fill-rule="evenodd" clip-rule="evenodd" d="M9.6 12C10.9255 12 12 10.9255 12 9.59995C12 8.27443 10.9255 7.19995 9.6 7.19995C8.27448 7.19995 7.2 8.27443 7.2 9.59995C7.2 10.9255 8.27448 12 9.6 12ZM17.6 12C18.9255 12 20 10.9255 20 9.59995C20 8.27443 18.9255 7.19995 17.6 7.19995C16.2745 7.19995 15.2 8.27443 15.2 9.59995C15.2 10.9255 16.2745 12 17.6 12ZM28 9.59995C28 10.9255 26.9255 12 25.6 12C24.2745 12 23.2 10.9255 23.2 9.59995C23.2 8.27443 24.2745 7.19995 25.6 7.19995C26.9255 7.19995 28 8.27443 28 9.59995Z" fill="#94A2AB"/>
<path d="M162.4 26.3999H13.6C11.8327 26.3999 10.4 27.8326 10.4 29.5999V63.1999C10.4 64.9672 11.8327 66.3999 13.6 66.3999H162.4C164.167 66.3999 165.6 64.9672 165.6 63.1999V29.5999C165.6 27.8326 164.167 26.3999 162.4 26.3999Z" fill="#E0E7EC"/>
<path fill-rule="evenodd" clip-rule="evenodd" d="M93.5208 42.9636C94.5512 42.9636 95.3864 42.1211 95.3864 41.0818C95.3864 40.0425 94.5512 39.2 93.5208 39.2C92.4904 39.2 91.6552 40.0425 91.6552 41.0818C91.6552 42.1211 92.4904 42.9636 93.5208 42.9636ZM88.3568 54.359H77.6193C76.9914 54.359 76.6083 53.6689 76.9402 53.136L84.1008 41.6388C84.4088 41.144 85.1232 41.1312 85.4448 41.6177C86.564 43.3159 88.8616 46.8053 90.8376 49.8463L92.912 46.4962C93.2128 46.0098 93.912 45.9876 94.244 46.4538L98.9744 53.1072C99.3488 53.634 98.9784 54.3644 98.332 54.3708L93.748 54.4158L88.3568 54.359Z" fill="#94A2AB"/>
<path fill-rule="evenodd" clip-rule="evenodd" d="M12 73.6001C11.1163 73.6001 10.4 74.3164 10.4 75.2001V78.4001C10.4 79.2838 11.1163 80.0001 12 80.0001H64.8C65.6837 80.0001 66.4 79.2838 66.4 78.4001V75.2001C66.4 74.3164 65.6837 73.6001 64.8 73.6001H12ZM12 84.0001C11.1163 84.0001 10.4 84.7161 10.4 85.6001V88.8001C10.4 89.6841 11.1163 90.4001 12 90.4001H48.8C49.6837 90.4001 50.4 89.6841 50.4 88.8001V85.6001C50.4 84.7161 49.6837 84.0001 48.8 84.0001H12ZM10.4 96.0001C10.4 95.1161 11.1163 94.4001 12 94.4001H56.8C57.6837 94.4001 58.4 95.1161 58.4 96.0001V99.2001C58.4 100.084 57.6837 100.8 56.8 100.8H12C11.1163 100.8 10.4 100.084 10.4 99.2001V96.0001ZM12 104.8C11.1163 104.8 10.4 105.516 10.4 106.4V109.6C10.4 110.484 11.1163 111.2 12 111.2H40.8C41.6837 111.2 42.4 110.484 42.4 109.6V106.4C42.4 105.516 41.6837 104.8 40.8 104.8H12Z" fill="#E0E7EC"/>
<path fill-rule="evenodd" clip-rule="evenodd" d="M84 84C83.116 84 82.4 84.716 82.4 85.6V88.8C82.4 89.684 83.116 90.4 84 90.4H138.4C139.284 90.4 140 89.684 140 88.8V85.6C140 84.716 139.284 84 138.4 84H84ZM84 94.4C83.116 94.4 82.4 95.116 82.4 96V99.2C82.4 100.084 83.116 100.8 84 100.8H145.6C146.484 100.8 147.2 100.084 147.2 99.2V96C147.2 95.116 146.484 94.4 145.6 94.4H84ZM82.4 106.4C82.4 105.516 83.116 104.8 84 104.8H152.8C153.684 104.8 154.4 105.516 154.4 106.4V109.6C154.4 110.484 153.684 111.2 152.8 111.2H84C83.116 111.2 82.4 110.484 82.4 109.6V106.4ZM84 115.2C83.116 115.2 82.4 115.916 82.4 116.8V120C82.4 120.884 83.116 121.6 84 121.6H131.2C132.084 121.6 132.8 120.884 132.8 120V116.8C132.8 115.916 132.084 115.2 131.2 115.2H84Z" fill="#E0E7EC"/>
<path d="M152.8 73.6001H84C83.1163 73.6001 82.4 74.3164 82.4 75.2001V78.4001C82.4 79.2838 83.1163 80.0001 84 80.0001H152.8C153.684 80.0001 154.4 79.2838 154.4 78.4001V75.2001C154.4 74.3164 153.684 73.6001 152.8 73.6001Z" fill="#94A2AB"/>
</svg>
