<svg width="80" height="80" viewBox="0 0 80 80" fill="none" xmlns="http://www.w3.org/2000/svg">
<path d="M76.7689 23.2312L66.7689 13.2312C66.2998 12.7621 65.6635 12.4985 65.0001 12.4985C64.3367 12.4985 63.7005 12.7621 63.2313 13.2312C62.7622 13.7003 62.4987 14.3365 62.4987 14.9999C62.4987 15.6633 62.7622 16.2996 63.2313 16.7687L68.9657 22.4999H60.0001C56.9373 22.6109 53.9266 23.3256 51.1407 24.6031C46.8845 26.5687 41.5064 30.7624 40.0345 39.6031C38.372 49.5843 30.9407 51.8593 27.222 52.3718C26.5663 49.3452 24.8104 46.6697 22.2946 44.8638C19.7788 43.0579 16.6822 42.2501 13.6049 42.5971C10.5275 42.9441 7.68852 44.421 5.638 46.7418C3.58748 49.0625 2.47145 52.0618 2.50616 55.1585C2.54086 58.2552 3.72384 61.2287 5.82586 63.5029C7.92788 65.7771 10.7993 67.1901 13.8836 67.468C16.968 67.7459 20.0457 66.869 22.5204 65.0071C24.9951 63.1453 26.6905 60.4311 27.2782 57.3905C29.5258 57.1344 31.7215 56.5391 33.7907 55.6249C38.047 53.7499 43.4376 49.5624 44.9657 40.4093C47.0782 27.7405 59.4814 27.4999 60.0001 27.4999H68.9657L63.2313 33.2312C62.7622 33.7003 62.4987 34.3365 62.4987 34.9999C62.4987 35.6633 62.7622 36.2996 63.2313 36.7687C63.7005 37.2378 64.3367 37.5013 65.0001 37.5013C65.6635 37.5013 66.2998 37.2378 66.7689 36.7687L76.7689 26.7687C77.0013 26.5365 77.1857 26.2608 77.3115 25.9573C77.4373 25.6538 77.5021 25.3285 77.5021 24.9999C77.5021 24.6714 77.4373 24.3461 77.3115 24.0426C77.1857 23.7391 77.0013 23.4634 76.7689 23.2312ZM15.0001 62.4999C13.5167 62.4999 12.0667 62.0601 10.8333 61.2359C9.59996 60.4118 8.63866 59.2405 8.071 57.87C7.50335 56.4996 7.35482 54.9916 7.64421 53.5367C7.9336 52.0819 8.64791 50.7455 9.6968 49.6966C10.7457 48.6477 12.0821 47.9334 13.5369 47.644C14.9918 47.3546 16.4998 47.5032 17.8702 48.0708C19.2407 48.6385 20.412 49.5998 21.2361 50.8331C22.0602 52.0665 22.5001 53.5166 22.5001 54.9999C22.5001 56.9891 21.7099 58.8967 20.3034 60.3032C18.8969 61.7097 16.9892 62.4999 15.0001 62.4999Z" fill="white"/>
</svg>
