<svg width="130" height="23" viewBox="0 0 130 23" fill="none" xmlns="http://www.w3.org/2000/svg">
<path d="M0.517045 18V0.545454H4.20739V7.74716H11.6989V0.545454H15.3807V18H11.6989V10.7898H4.20739V18H0.517045ZM17.7585 3.58807V0.545454H32.0938V3.58807H26.75V18H23.1023V3.58807H17.7585ZM34.4545 0.545454H39.0057L43.8125 12.2727H44.017L48.8239 0.545454H53.375V18H49.7955V6.6392H49.6506L45.1335 17.9148H42.696L38.179 6.59659H38.0341V18H34.4545V0.545454ZM56.4155 18V0.545454H60.1058V14.9574H67.5888V18H56.4155ZM84.7536 6.65625H81.0206C80.9524 6.1733 80.8132 5.74432 80.603 5.36932C80.3928 4.98864 80.1229 4.66477 79.7933 4.39773C79.4638 4.13068 79.0831 3.92614 78.6513 3.78409C78.2251 3.64205 77.7621 3.57102 77.2621 3.57102C76.3587 3.57102 75.5717 3.79545 74.9013 4.24432C74.2308 4.6875 73.7109 5.33523 73.3416 6.1875C72.9723 7.03409 72.7876 8.0625 72.7876 9.27273C72.7876 10.517 72.9723 11.5625 73.3416 12.4091C73.7166 13.2557 74.2393 13.8949 74.9098 14.3267C75.5803 14.7585 76.3558 14.9744 77.2365 14.9744C77.7308 14.9744 78.1882 14.9091 78.6087 14.7784C79.0348 14.6477 79.4126 14.4574 79.7422 14.2074C80.0717 13.9517 80.3445 13.642 80.5604 13.2784C80.782 12.9148 80.9354 12.5 81.0206 12.0341L84.7536 12.0511C84.657 12.8523 84.4155 13.625 84.0291 14.3693C83.6484 15.108 83.1342 15.7699 82.4865 16.3551C81.8445 16.9347 81.0774 17.3949 80.1854 17.7358C79.299 18.071 78.2962 18.2386 77.1768 18.2386C75.62 18.2386 74.228 17.8864 73.0007 17.1818C71.7791 16.4773 70.8132 15.4574 70.103 14.1222C69.3984 12.7869 69.0462 11.1705 69.0462 9.27273C69.0462 7.36932 69.4041 5.75 70.12 4.41477C70.8359 3.07955 71.8075 2.0625 73.0348 1.36364C74.2621 0.659091 75.6428 0.306818 77.1768 0.306818C78.1882 0.306818 79.1257 0.448863 79.9893 0.732954C80.8587 1.01705 81.6286 1.43182 82.299 1.97727C82.9695 2.51704 83.5149 3.17898 83.9354 3.96307C84.3615 4.74716 84.6342 5.64489 84.7536 6.65625ZM90.9624 10.4318V18H87.3317V0.545454H90.8601V7.21875H91.0135C91.3089 6.44602 91.7862 5.84091 92.4453 5.40341C93.1044 4.96023 93.9311 4.73864 94.9254 4.73864C95.8345 4.73864 96.6271 4.9375 97.3033 5.33523C97.9851 5.72727 98.5135 6.29261 98.8885 7.03125C99.2692 7.7642 99.4567 8.64205 99.451 9.66477V18H95.8203V10.3125C95.826 9.50568 95.6214 8.87784 95.2067 8.42898C94.7976 7.98011 94.2237 7.75568 93.4851 7.75568C92.9908 7.75568 92.5533 7.8608 92.1726 8.07102C91.7976 8.28125 91.5021 8.58807 91.2862 8.99148C91.076 9.3892 90.968 9.86932 90.9624 10.4318ZM108.223 18.2557C106.899 18.2557 105.754 17.9744 104.788 17.4119C103.828 16.8437 103.087 16.054 102.564 15.0426C102.041 14.0256 101.78 12.8466 101.78 11.5057C101.78 10.1534 102.041 8.97159 102.564 7.96023C103.087 6.94318 103.828 6.15341 104.788 5.59091C105.754 5.02273 106.899 4.73864 108.223 4.73864C109.547 4.73864 110.689 5.02273 111.649 5.59091C112.615 6.15341 113.359 6.94318 113.882 7.96023C114.405 8.97159 114.666 10.1534 114.666 11.5057C114.666 12.8466 114.405 14.0256 113.882 15.0426C113.359 16.054 112.615 16.8437 111.649 17.4119C110.689 17.9744 109.547 18.2557 108.223 18.2557ZM108.24 15.4432C108.842 15.4432 109.345 15.2727 109.749 14.9318C110.152 14.5852 110.456 14.1136 110.661 13.517C110.871 12.9205 110.976 12.2415 110.976 11.4801C110.976 10.7188 110.871 10.0398 110.661 9.44318C110.456 8.84659 110.152 8.375 109.749 8.02841C109.345 7.68182 108.842 7.50852 108.24 7.50852C107.632 7.50852 107.121 7.68182 106.706 8.02841C106.297 8.375 105.987 8.84659 105.777 9.44318C105.572 10.0398 105.47 10.7188 105.47 11.4801C105.47 12.2415 105.572 12.9205 105.777 13.517C105.987 14.1136 106.297 14.5852 106.706 14.9318C107.121 15.2727 107.632 15.4432 108.24 15.4432ZM117.027 22.9091V4.90909H120.607V7.10795H120.768C120.928 6.75568 121.158 6.39773 121.459 6.03409C121.766 5.66477 122.163 5.35795 122.652 5.11364C123.146 4.86364 123.76 4.73864 124.493 4.73864C125.447 4.73864 126.328 4.98864 127.135 5.48864C127.942 5.98295 128.587 6.73011 129.07 7.73011C129.553 8.72443 129.794 9.97159 129.794 11.4716C129.794 12.9318 129.558 14.1648 129.087 15.1705C128.621 16.1705 127.984 16.929 127.178 17.446C126.376 17.9574 125.479 18.2131 124.484 18.2131C123.78 18.2131 123.18 18.0966 122.686 17.8636C122.197 17.6307 121.797 17.3381 121.484 16.9858C121.172 16.6278 120.933 16.267 120.768 15.9034H120.658V22.9091H117.027ZM120.581 11.4545C120.581 12.233 120.689 12.9119 120.905 13.4915C121.121 14.071 121.433 14.5227 121.842 14.8466C122.251 15.1648 122.749 15.3239 123.334 15.3239C123.925 15.3239 124.425 15.1619 124.834 14.8381C125.243 14.5085 125.553 14.054 125.763 13.4744C125.979 12.8892 126.087 12.2159 126.087 11.4545C126.087 10.6989 125.982 10.0341 125.771 9.46023C125.561 8.88636 125.251 8.4375 124.842 8.11364C124.433 7.78977 123.93 7.62784 123.334 7.62784C122.743 7.62784 122.243 7.78409 121.834 8.09659C121.43 8.40909 121.121 8.85227 120.905 9.42614C120.689 10 120.581 10.6761 120.581 11.4545Z" fill="#5A7184"/>
</svg>
