<svg width="34" height="28" viewBox="0 0 34 28" fill="none" xmlns="http://www.w3.org/2000/svg">
<path fill-rule="evenodd" clip-rule="evenodd" d="M33.577 28H0.423828L3.07681 20.0411C3.08139 20.0274 3.08609 20.0137 3.09091 20H30.91C30.9148 20.0137 30.9195 20.0274 30.9241 20.0411L33.577 28ZM13.7998 23.2C13.358 23.2 12.9998 23.5582 12.9998 24C12.9998 24.4419 13.358 24.8 13.7998 24.8H20.1998C20.6417 24.8 20.9998 24.4419 20.9998 24C20.9998 23.5582 20.6417 23.2 20.1998 23.2H13.7998ZM3.39982 18.4V3.20005C3.39982 1.87457 4.47434 0.800049 5.79982 0.800049H28.1998C29.5253 0.800049 30.5998 1.87457 30.5998 3.20005V18.4H3.39982ZM12.5607 5.65686L11.2128 4.67657L7.52298 9.75005L11.2128 14.8235L12.5607 13.8432L9.58381 9.75005L12.5607 5.65686ZM20.8563 5.65686L23.8332 9.75005L20.8563 13.8432L22.2042 14.8235L25.894 9.75005L22.2042 4.67657L20.8563 5.65686ZM17.7482 3.28533L14.4149 15.7853L16.0253 16.2148L19.3586 3.71477L17.7482 3.28533Z" fill="#1565D8"/>
</svg>
