<svg width="21" height="16" viewBox="0 0 21 16" fill="none" xmlns="http://www.w3.org/2000/svg">
<path d="M7.5 8C9.6875 8 11.5 6.21875 11.5 4C11.5 1.8125 9.6875 0 7.5 0C5.28125 0 3.5 1.8125 3.5 4C3.5 6.21875 5.28125 8 7.5 8ZM10.2812 9H9.75C9.0625 9.34375 8.3125 9.5 7.5 9.5C6.6875 9.5 5.90625 9.34375 5.21875 9H4.6875C2.375 9 0.5 10.9062 0.5 13.2188V14.5C0.5 15.3438 1.15625 16 2 16H13C13.8125 16 14.5 15.3438 14.5 14.5V13.2188C14.5 10.9062 12.5938 9 10.2812 9ZM20.375 5L19.5 4.125C19.375 3.96875 19.125 3.96875 19 4.125L15.7188 7.375L14.2812 5.9375C14.1562 5.78125 13.9062 5.78125 13.75 5.9375L12.875 6.8125C12.75 6.9375 12.75 7.1875 12.875 7.34375L15.4375 9.90625C15.5938 10.0625 15.8125 10.0625 15.9688 9.90625L20.375 5.53125C20.5312 5.375 20.5312 5.15625 20.375 5Z" fill="#1565D8"/>
</svg>
