<svg width="40" height="40" viewBox="0 0 40 40" fill="none" xmlns="http://www.w3.org/2000/svg">
<path fill-rule="evenodd" clip-rule="evenodd" d="M34.9447 5.69539C36.0309 11.5255 33.5964 17.709 28.7064 21.5775L15.7497 31.8275C15.4313 32.0794 14.9747 32.0529 14.6876 31.7658L8.23432 25.3125C7.94725 25.0254 7.92072 24.5688 8.17259 24.2504L18.4226 11.2937C22.2911 6.40368 28.4746 3.96922 34.3047 5.05545C34.6298 5.11602 34.8841 5.37032 34.9447 5.69539ZM23.5716 10.7716C22.0095 12.3337 22.0095 14.8664 23.5716 16.4285C25.1337 17.9906 27.6663 17.9906 29.2284 16.4285C30.7905 14.8664 30.7905 12.3337 29.2284 10.7716C27.6663 9.20952 25.1337 9.20952 23.5716 10.7716ZM28.0971 15.2971C27.1598 16.2344 25.6402 16.2344 24.7029 15.2971C23.7657 14.3598 23.7657 12.8403 24.7029 11.903C25.6402 10.9657 27.1598 10.9657 28.0971 11.903C29.0343 12.8403 29.0343 14.3598 28.0971 15.2971Z" fill="#1565D8"/>
<path opacity="0.3" fill-rule="evenodd" clip-rule="evenodd" d="M12.8 32.2508L12.0894 32.9614C11.238 33.8128 9.85757 33.8128 9.00618 32.9614L7.03854 30.9938C6.18714 30.1424 6.18714 28.762 7.03854 27.9106L7.74917 27.2L12.8 32.2508ZM8.59612 20.8L5.1674 18.5206C4.70277 18.2117 4.6736 17.5414 5.10965 17.1935L11.2999 12.2756C12.6337 11.2158 14.409 10.9227 15.9982 11.4695L8.59612 20.8ZM28.5072 24C29.0897 25.6207 28.7937 27.4426 27.7032 28.7975L22.7995 34.8901C22.4523 35.3264 21.7833 35.2972 21.475 34.8323L19.2 31.4017L28.5072 24Z" fill="#1565D8"/>
</svg>
