<svg width="40" height="40" viewBox="0 0 40 40" fill="none" xmlns="http://www.w3.org/2000/svg">
<path fill-rule="evenodd" clip-rule="evenodd" d="M5.6 3.19995H15.2C16.5255 3.19995 17.6 4.27447 17.6 5.59995V15.2C17.6 16.5254 16.5255 17.6 15.2 17.6H5.6C4.27451 17.6 3.2 16.5254 3.2 15.2V5.59995C3.2 4.27447 4.27451 3.19995 5.6 3.19995ZM24.8 22.4H34.4C35.7255 22.4 36.8 23.4745 36.8 24.8V34.4C36.8 35.7254 35.7255 36.7999 34.4 36.7999H24.8C23.4745 36.7999 22.4 35.7254 22.4 34.4V24.8C22.4 23.4745 23.4745 22.4 24.8 22.4Z" fill="#1565D8"/>
<path opacity="0.3" fill-rule="evenodd" clip-rule="evenodd" d="M24.8 3.19995H34.4C35.7255 3.19995 36.8 4.27447 36.8 5.59995V15.2C36.8 16.5254 35.7255 17.6 34.4 17.6H24.8C23.4745 17.6 22.4 16.5254 22.4 15.2V5.59995C22.4 4.27447 23.4745 3.19995 24.8 3.19995ZM5.6 22.4H15.2C16.5255 22.4 17.6 23.4745 17.6 24.8V34.4C17.6 35.7254 16.5255 36.7999 15.2 36.7999H5.6C4.27451 36.7999 3.2 35.7254 3.2 34.4V24.8C3.2 23.4745 4.27451 22.4 5.6 22.4Z" fill="#1565D8"/>
</svg>
