<svg width="15" height="15" viewBox="0 0 15 15" fill="none" xmlns="http://www.w3.org/2000/svg">
<path d="M6.40625 0.75C6.02344 0.75 5.75 1.05078 5.75 1.40625V6H3.34375C2.85156 6 2.60547 6.60156 2.96094 6.95703L7.11719 11.1133C7.30859 11.3047 7.66406 11.3047 7.85547 11.1133L12.0117 6.95703C12.3672 6.60156 12.1211 6 11.6289 6H9.25V1.40625C9.25 1.05078 8.94922 0.75 8.59375 0.75H6.40625ZM14.5 11.0312C14.5 10.6758 14.1992 10.375 13.8438 10.375H9.82422L8.48438 11.7148C7.9375 12.2891 7.03516 12.2891 6.48828 11.7148L5.14844 10.375H1.15625C0.773438 10.375 0.5 10.6758 0.5 11.0312V14.0938C0.5 14.4766 0.773438 14.75 1.15625 14.75H13.8438C14.1992 14.75 14.5 14.4766 14.5 14.0938V11.0312ZM11.1094 13.4375C11.1094 13.7383 10.8633 13.9844 10.5625 13.9844C10.2617 13.9844 10.0156 13.7383 10.0156 13.4375C10.0156 13.1367 10.2617 12.8906 10.5625 12.8906C10.8633 12.8906 11.1094 13.1367 11.1094 13.4375ZM12.8594 13.4375C12.8594 13.7383 12.6133 13.9844 12.3125 13.9844C12.0117 13.9844 11.7656 13.7383 11.7656 13.4375C11.7656 13.1367 12.0117 12.8906 12.3125 12.8906C12.6133 12.8906 12.8594 13.1367 12.8594 13.4375Z" fill="#1565D8"/>
</svg>
