<svg width="15" height="15" viewBox="0 0 15 15" fill="none" xmlns="http://www.w3.org/2000/svg">
<path d="M7.33334 3.73975C5.33334 3.73975 3.73959 5.36475 3.73959 7.3335C3.73959 9.3335 5.33334 10.9272 7.33334 10.9272C9.30209 10.9272 10.9271 9.3335 10.9271 7.3335C10.9271 5.36475 9.30209 3.73975 7.33334 3.73975ZM7.33334 9.67725C6.05209 9.67725 4.98959 8.646 4.98959 7.3335C4.98959 6.05225 6.02084 5.021 7.33334 5.021C8.61459 5.021 9.64584 6.05225 9.64584 7.3335C9.64584 8.646 8.61459 9.67725 7.33334 9.67725ZM11.8958 3.61475C11.8958 3.146 11.5208 2.771 11.0521 2.771C10.5833 2.771 10.2083 3.146 10.2083 3.61475C10.2083 4.0835 10.5833 4.4585 11.0521 4.4585C11.5208 4.4585 11.8958 4.0835 11.8958 3.61475ZM14.2708 4.4585C14.2083 3.3335 13.9583 2.3335 13.1458 1.521C12.3333 0.708496 11.3333 0.458496 10.2083 0.395996C9.05209 0.333496 5.58334 0.333496 4.42709 0.395996C3.30209 0.458496 2.33334 0.708496 1.48959 1.521C0.677094 2.3335 0.427094 3.3335 0.364594 4.4585C0.302094 5.61475 0.302094 9.0835 0.364594 10.2397C0.427094 11.3647 0.677094 12.3335 1.48959 13.1772C2.33334 13.9897 3.30209 14.2397 4.42709 14.3022C5.58334 14.3647 9.05209 14.3647 10.2083 14.3022C11.3333 14.2397 12.3333 13.9897 13.1458 13.1772C13.9583 12.3335 14.2083 11.3647 14.2708 10.2397C14.3333 9.0835 14.3333 5.61475 14.2708 4.4585ZM12.7708 11.4585C12.5521 12.0835 12.0521 12.5522 11.4583 12.8022C10.5208 13.1772 8.33334 13.0835 7.33334 13.0835C6.30209 13.0835 4.11459 13.1772 3.20834 12.8022C2.58334 12.5522 2.11459 12.0835 1.86459 11.4585C1.48959 10.5522 1.58334 8.36475 1.58334 7.3335C1.58334 6.3335 1.48959 4.146 1.86459 3.2085C2.11459 2.61475 2.58334 2.146 3.20834 1.896C4.11459 1.521 6.30209 1.61475 7.33334 1.61475C8.33334 1.61475 10.5208 1.521 11.4583 1.896C12.0521 2.11475 12.5208 2.61475 12.7708 3.2085C13.1458 4.146 13.0521 6.3335 13.0521 7.3335C13.0521 8.36475 13.1458 10.5522 12.7708 11.4585Z" fill="#5A7184"/>
</svg>
