<svg version="1.2" xmlns="http://www.w3.org/2000/svg" viewBox="0 0 37 38" width="37" height="38">
	<title>&lt;Group&gt;</title>
	<style>
		.s0 { fill: #e6aa57 } 
		.s1 { fill: #d34f40 } 
		.s2 { fill: #618ac2 } 
		.s3 { fill: #86b756 } 
	</style>
	<g id="&lt;Group&gt;">
		<path id="&lt;Path&gt;" class="s0" d="m36.7 5.4c0-2.6-2.2-4.8-4.9-4.8-2.4 0-4.4 1.8-4.7 4.1q-0.1 0-0.1 0c-3.9-1.8-7.2 1.4-7.2 1.4l-8.8 8.8 3.5 3.4 7-7c3.3-3.3 5.1-1.1 5.1-1.1 2.5 2.1 0.1 4.6 0.1 4.6l3.6 3.5c2.9-3.2 3-5.9 2.1-8.1 2.4-0.3 4.3-2.3 4.3-4.8z"/>
		<path id="&lt;Path&gt;" class="s1" d="m32.5 27.6q0-0.1 0-0.1c1.8-3.9-1.4-7.2-1.4-7.2l-8.8-8.8-3.3 3.5 6.9 7c3.3 3.3 1.1 5.1 1.1 5.1-2.1 2.5-4.6 0.1-4.6 0.1l-3.4 3.6c3.1 2.9 5.9 3 8 2.2 0.3 2.3 2.4 4.2 4.8 4.2 2.7 0 4.8-2.2 4.8-4.8 0-2.5-1.8-4.5-4.1-4.8z"/>
		<path id="&lt;Path&gt;" class="s2" d="m22.4 19.4l-7.1 6.9c-3.3 3.3-5.1 1.1-5.1 1.1-2.4-2.1 0-4.6 0-4.6l-3.6-3.4c-2.9 3.1-3.1 5.8-2.2 8-2.4 0.3-4.2 2.3-4.2 4.8 0 2.7 2.2 4.8 4.8 4.8 2.4 0 4.5-1.8 4.8-4.1q0 0 0 0c4 1.8 7.3-1.4 7.3-1.4l8.8-8.8z"/>
		<path id="&lt;Path&gt;" class="s3" d="m10.9 15.6c-3.3-3.3-1-5.1-1-5.1 2.1-2.5 4.5-0.1 4.5-0.1l3.5-3.5c-3.2-3-5.9-3.1-8.1-2.2-0.3-2.4-2.3-4.3-4.8-4.3-2.6 0-4.8 2.2-4.8 4.9 0 2.4 1.8 4.4 4.2 4.7q-0.1 0.1-0.1 0.1c-1.7 3.9 1.4 7.2 1.4 7.2l8.8 8.8 3.4-3.4z"/>
	</g>
</svg>