<svg width="40" height="40" viewBox="0 0 40 40" fill="none" xmlns="http://www.w3.org/2000/svg">
<path fill-rule="evenodd" clip-rule="evenodd" d="M11.4926 15.7021C13.5953 12.7139 14.9078 9.28511 15.4344 5.40334C15.4845 5.03356 15.7463 4.72608 16.1056 4.61489C19.7267 3.49425 21.7854 5.27503 21.7514 9.33558C21.7448 10.1238 21.7084 10.8244 21.631 11.8959C21.458 14.2892 21.4718 14.9424 21.7397 15.3819C21.9973 15.8044 22.8335 15.9486 24.8113 15.5731C25.4353 15.4546 26.0613 15.3203 26.7547 15.159C27.0608 15.0878 29.2655 14.5498 29.8291 14.4282C30.9041 14.196 31.6755 14.0978 32.3538 14.1394C34.1912 14.2521 35.1663 15.4352 35.3348 17.7018C35.6315 21.6935 34.7147 29.7113 33.8 32.6646C32.8654 35.6825 31.2354 36.8216 27.3227 36.8904C24.8072 36.9346 20.9381 36.9346 15.6976 36.8903C14.3599 36.8592 13.1475 36.6001 12.0691 36.1158C12.3718 35.489 12.5414 34.787 12.5414 34.0456V18.6856C12.5414 17.5581 12.1491 16.5213 11.4926 15.7021Z" fill="#1565D8"/>
<path opacity="0.3" fill-rule="evenodd" clip-rule="evenodd" d="M5.76241 15.8057C4.15787 15.8057 2.85714 17.0951 2.85714 18.6857V34.0457C2.85714 35.6362 4.15787 36.9257 5.76241 36.9257H7.69925C9.30378 36.9257 10.6045 35.6362 10.6045 34.0457V18.6857C10.6045 17.0951 9.30378 15.8057 7.69925 15.8057H5.76241Z" fill="#1565D8"/>
</svg>
