<svg width="15" height="15" viewBox="0 0 15 15" fill="none" xmlns="http://www.w3.org/2000/svg">
<path d="M13.3333 0.333496H1.30209C0.770844 0.333496 0.333344 0.802246 0.333344 1.36475V13.3335C0.333344 13.896 0.770844 14.3335 1.30209 14.3335H13.3333C13.8646 14.3335 14.3333 13.896 14.3333 13.3335V1.36475C14.3333 0.802246 13.8646 0.333496 13.3333 0.333496ZM4.55209 12.3335H2.48959V5.67725H4.55209V12.3335ZM3.52084 4.73975C2.83334 4.73975 2.30209 4.2085 2.30209 3.55225C2.30209 2.896 2.83334 2.3335 3.52084 2.3335C4.17709 2.3335 4.70834 2.896 4.70834 3.55225C4.70834 4.2085 4.17709 4.73975 3.52084 4.73975ZM12.3333 12.3335H10.2396V9.0835C10.2396 8.3335 10.2396 7.3335 9.17709 7.3335C8.08334 7.3335 7.92709 8.17725 7.92709 9.05225V12.3335H5.86459V5.67725H7.83334V6.5835H7.86459C8.14584 6.05225 8.83334 5.48975 9.83334 5.48975C11.9271 5.48975 12.3333 6.896 12.3333 8.67725V12.3335Z" fill="#5A7184"/>
</svg>
