<svg width="65" height="98" viewBox="0 0 65 98" fill="none" xmlns="http://www.w3.org/2000/svg">
<g clip-path="url(#clip0_1_654)">
<path d="M16.25 97.9999C25.22 97.9999 32.5 90.6826 32.5 81.6666V65.3333H16.25C7.28 65.3333 0 72.6506 0 81.6666C0 90.6826 7.28 97.9999 16.25 97.9999Z" fill="#0ACF83"/>
<path d="M0 49.0001C0 39.9841 7.28 32.6667 16.25 32.6667H32.5V65.3334H16.25C7.28 65.3334 0 58.0161 0 49.0001Z" fill="#A259FF"/>
<path d="M0 16.3333C0 7.31733 7.28 0 16.25 0H32.5V32.6667H16.25C7.28 32.6667 0 25.3493 0 16.3333Z" fill="#F24E1E"/>
<path d="M32.5 0H48.75C57.72 0 65 7.31733 65 16.3333C65 25.3493 57.72 32.6667 48.75 32.6667H32.5V0Z" fill="#FF7262"/>
<path d="M65 49.0001C65 58.0161 57.72 65.3334 48.75 65.3334C39.78 65.3334 32.5 58.0161 32.5 49.0001C32.5 39.9841 39.78 32.6667 48.75 32.6667C57.72 32.6667 65 39.9841 65 49.0001Z" fill="#1ABCFE"/>
</g>
<defs>
<clipPath id="clip0_1_654">
<rect width="65" height="98" fill="white"/>
</clipPath>
</defs>
</svg>
