<svg width="155" height="31" viewBox="0 0 155 31" fill="none" xmlns="http://www.w3.org/2000/svg">
<path d="M17.584 23H13.0576V13.7568H4.57617V23H0.0351562V1.58398H4.57617V9.97754H13.0576V1.58398H17.584V23Z" fill="white"/>
<path d="M31.2656 23H26.7246V5.36328H20.9092V1.58398H37.0811V5.36328H31.2656V23Z" fill="white"/>
<path d="M49.4443 23L44.2881 6.19824H44.1562C44.1758 6.59863 44.2051 7.2041 44.2441 8.01465C44.293 8.81543 44.3369 9.66992 44.376 10.5781C44.415 11.4863 44.4346 12.3066 44.4346 13.0391V23H40.377V1.58398H46.5586L51.627 17.9609H51.7148L57.0908 1.58398H63.2725V23H59.0391V12.8633C59.0391 12.1895 59.0488 11.4131 59.0684 10.5342C59.0977 9.65527 59.1318 8.82031 59.1709 8.0293C59.21 7.22852 59.2393 6.62793 59.2588 6.22754H59.127L53.6045 23H49.4443Z" fill="white"/>
<path d="M68.6777 23V1.58398H73.2188V19.25H81.9053V23H68.6777Z" fill="white"/>
<path d="M91.9395 23.293C90.3184 23.293 88.9365 23 87.7939 22.4141C86.6514 21.8184 85.7822 20.9004 85.1865 19.6602C84.5908 18.4199 84.293 16.833 84.293 14.8994C84.293 12.8975 84.6299 11.2666 85.3037 10.0068C85.9873 8.7373 86.9297 7.80469 88.1309 7.20898C89.3418 6.61328 90.7432 6.31543 92.335 6.31543C93.4678 6.31543 94.4443 6.42773 95.2646 6.65234C96.0947 6.86719 96.8174 7.12598 97.4326 7.42871L96.1143 10.8857C95.4111 10.6025 94.7568 10.373 94.1514 10.1973C93.5459 10.0117 92.9404 9.91895 92.335 9.91895C91.5537 9.91895 90.9043 10.1045 90.3867 10.4756C89.8691 10.8369 89.4834 11.3838 89.2295 12.1162C88.9756 12.8486 88.8486 13.7666 88.8486 14.8701C88.8486 15.9541 88.9854 16.8525 89.2588 17.5654C89.5322 18.2783 89.9277 18.8105 90.4453 19.1621C90.9629 19.5039 91.5928 19.6748 92.335 19.6748C93.2627 19.6748 94.0879 19.5527 94.8105 19.3086C95.5332 19.0547 96.2363 18.7031 96.9199 18.2539V22.0771C96.2363 22.5068 95.5186 22.8145 94.7666 23C94.0244 23.1953 93.082 23.293 91.9395 23.293Z" fill="white"/>
<path d="M105.196 0.207031V4.85059C105.196 5.66113 105.167 6.43262 105.108 7.16504C105.06 7.89746 105.021 8.41504 104.991 8.71777H105.226C105.577 8.15137 105.992 7.69238 106.471 7.34082C106.959 6.98926 107.496 6.73047 108.082 6.56445C108.668 6.39844 109.298 6.31543 109.972 6.31543C111.153 6.31543 112.184 6.52539 113.062 6.94531C113.941 7.35547 114.625 8.00488 115.113 8.89355C115.602 9.77246 115.846 10.915 115.846 12.3213V23H111.378V13.4346C111.378 12.2627 111.163 11.3789 110.733 10.7832C110.304 10.1875 109.64 9.88965 108.741 9.88965C107.843 9.88965 107.135 10.0996 106.617 10.5195C106.1 10.9297 105.733 11.54 105.519 12.3506C105.304 13.1514 105.196 14.1328 105.196 15.2949V23H100.729V0.207031H105.196Z" fill="white"/>
<path d="M135.328 14.7822C135.328 16.1494 135.143 17.3604 134.771 18.415C134.41 19.4697 133.878 20.3633 133.175 21.0957C132.481 21.8184 131.642 22.3652 130.655 22.7363C129.679 23.1074 128.575 23.293 127.345 23.293C126.192 23.293 125.133 23.1074 124.166 22.7363C123.209 22.3652 122.374 21.8184 121.661 21.0957C120.958 20.3633 120.411 19.4697 120.021 18.415C119.64 17.3604 119.449 16.1494 119.449 14.7822C119.449 12.9658 119.771 11.4277 120.416 10.168C121.061 8.9082 121.979 7.95117 123.17 7.29688C124.361 6.64258 125.782 6.31543 127.433 6.31543C128.966 6.31543 130.323 6.64258 131.505 7.29688C132.696 7.95117 133.629 8.9082 134.303 10.168C134.986 11.4277 135.328 12.9658 135.328 14.7822ZM124.005 14.7822C124.005 15.8564 124.122 16.7598 124.356 17.4922C124.591 18.2246 124.957 18.7764 125.455 19.1475C125.953 19.5186 126.603 19.7041 127.403 19.7041C128.194 19.7041 128.834 19.5186 129.322 19.1475C129.82 18.7764 130.182 18.2246 130.406 17.4922C130.641 16.7598 130.758 15.8564 130.758 14.7822C130.758 13.6982 130.641 12.7998 130.406 12.0869C130.182 11.3643 129.82 10.8223 129.322 10.4609C128.824 10.0996 128.175 9.91895 127.374 9.91895C126.192 9.91895 125.333 10.3242 124.796 11.1348C124.269 11.9453 124.005 13.1611 124.005 14.7822Z" fill="white"/>
<path d="M148.131 6.31543C149.977 6.31543 151.466 7.0332 152.599 8.46875C153.741 9.9043 154.312 12.0088 154.312 14.7822C154.312 16.6377 154.044 18.2002 153.507 19.4697C152.97 20.7295 152.228 21.6816 151.28 22.3262C150.333 22.9707 149.244 23.293 148.014 23.293C147.223 23.293 146.544 23.1953 145.978 23C145.411 22.7949 144.928 22.5361 144.527 22.2236C144.127 21.9014 143.78 21.5596 143.487 21.1982H143.253C143.331 21.5889 143.39 21.9893 143.429 22.3994C143.468 22.8096 143.487 23.21 143.487 23.6006V30.207H139.02V6.62305H142.652L143.282 8.74707H143.487C143.78 8.30762 144.137 7.90234 144.557 7.53125C144.977 7.16016 145.479 6.86719 146.065 6.65234C146.661 6.42773 147.35 6.31543 148.131 6.31543ZM146.695 9.88965C145.914 9.88965 145.294 10.0508 144.835 10.373C144.376 10.6953 144.039 11.1787 143.824 11.8232C143.619 12.4678 143.507 13.2832 143.487 14.2695V14.7529C143.487 15.8076 143.585 16.7012 143.78 17.4336C143.985 18.166 144.322 18.7227 144.791 19.1035C145.27 19.4844 145.924 19.6748 146.754 19.6748C147.438 19.6748 147.999 19.4844 148.438 19.1035C148.878 18.7227 149.205 18.166 149.42 17.4336C149.645 16.6914 149.757 15.7881 149.757 14.7236C149.757 13.1221 149.508 11.916 149.01 11.1055C148.512 10.2949 147.74 9.88965 146.695 9.88965Z" fill="white"/>
</svg>
