<svg width="36" height="36" viewBox="0 0 36 36" fill="none" xmlns="http://www.w3.org/2000/svg">
<path d="M27.359 0.0332031H8.63093C4.06773 0.0332031 0.36853 3.7324 0.36853 8.2956V27.0237C0.36853 31.5869 4.06773 35.2861 8.63093 35.2861H27.359C31.9222 35.2861 35.6214 31.5869 35.6214 27.0237V8.2956C35.6214 3.7324 31.9222 0.0332031 27.359 0.0332031Z" fill="#001E36"/>
<path d="M8.30042 24.5505V9.43582C8.30042 9.33295 8.34448 9.27429 8.44735 9.27429C8.69701 9.27429 8.93208 9.27429 9.26987 9.25955C9.6224 9.24482 9.98966 9.24482 10.3863 9.23022C10.7829 9.21549 11.2088 9.21549 11.6642 9.20075C12.1194 9.18616 12.5601 9.18616 13.0008 9.18616C14.2053 9.18616 15.2041 9.33295 16.0267 9.64142C16.7641 9.89184 17.4364 10.3033 17.995 10.8459C18.4683 11.3208 18.834 11.8919 19.0673 12.5204C19.2876 13.1374 19.4051 13.769 19.4051 14.43C19.4051 15.6932 19.1113 16.7361 18.5238 17.5587C17.9362 18.3812 17.1136 18.9982 16.1589 19.3507C15.16 19.718 14.0583 19.8502 12.854 19.8502C12.5014 19.8502 12.2664 19.8502 12.1194 19.8354C11.9726 19.8207 11.7669 19.8207 11.4879 19.8207V24.5358C11.5025 24.6386 11.4291 24.7268 11.3262 24.7415H8.47668C8.35922 24.7415 8.30042 24.6827 8.30042 24.5505ZM11.5025 12.1091V17.0445C11.7082 17.0593 11.8991 17.074 12.0754 17.074H12.854C13.4268 17.074 13.9997 16.9859 14.5431 16.8096C15.0132 16.6774 15.4244 16.3983 15.7476 16.031C16.0561 15.6639 16.203 15.1644 16.203 14.5182C16.2168 14.0591 16.0996 13.6056 15.8651 13.2108C15.6154 12.8289 15.2629 12.5352 14.8369 12.3735C14.2934 12.1532 13.7058 12.0651 13.1036 12.0798C12.7218 12.0798 12.3838 12.0798 12.1048 12.0945C11.811 12.0798 11.6054 12.0945 11.5025 12.1091ZM28.5708 16.1486C28.1302 15.9135 27.6602 15.752 27.1607 15.6491C26.6172 15.5317 26.0738 15.4581 25.5155 15.4581C25.2218 15.4435 24.9133 15.4876 24.6342 15.561C24.4433 15.6051 24.2817 15.7079 24.179 15.8547C24.1054 15.9723 24.0613 16.1191 24.0613 16.2513C24.0613 16.3835 24.1201 16.5157 24.2083 16.6333C24.3405 16.7949 24.5167 16.9271 24.7077 17.0299C25.0483 17.2063 25.3962 17.368 25.7506 17.5147C26.5438 17.779 27.3076 18.1462 28.0127 18.5868C28.4974 18.8953 28.894 19.3066 29.173 19.8061C29.4081 20.2761 29.5255 20.7901 29.511 21.3189C29.5255 22.0094 29.32 22.6997 28.9381 23.2726C28.5284 23.8589 27.9567 24.3132 27.2929 24.5798C26.5731 24.8883 25.6918 25.05 24.6342 25.05C23.9586 25.05 23.2976 24.9912 22.6366 24.859C22.1186 24.7695 21.6147 24.6114 21.1384 24.389C21.0355 24.3302 20.9621 24.2273 20.9767 24.1098V21.554C20.9767 21.5099 20.9915 21.4511 21.0355 21.4218C21.0796 21.3925 21.1237 21.4071 21.1677 21.4365C21.7406 21.7743 22.3428 22.0094 22.9892 22.1562C23.5473 22.3031 24.1349 22.3765 24.7223 22.3765C25.2806 22.3765 25.6772 22.3031 25.9416 22.1709C26.1765 22.0681 26.3382 21.8184 26.3382 21.554C26.3382 21.3484 26.2206 21.1574 25.9857 20.9664C25.7506 20.7755 25.2659 20.5552 24.5461 20.2761C23.8077 20.0159 23.1066 19.6604 22.4604 19.2185C22.0001 18.8904 21.6187 18.4639 21.344 17.9699C21.1089 17.4999 20.9915 16.9859 21.0062 16.4717C21.0062 15.8401 21.1825 15.2378 21.5055 14.6944C21.8728 14.1068 22.4163 13.6368 23.0478 13.343C23.7383 12.9904 24.6049 12.8289 25.6477 12.8289C26.2501 12.8289 26.867 12.873 27.4692 12.9611C27.9098 13.0199 28.3358 13.1374 28.7324 13.2989C28.7912 13.3136 28.85 13.3724 28.8793 13.4311C28.894 13.4899 28.9086 13.5487 28.9086 13.6074V16.0017C28.9086 16.0605 28.8793 16.1191 28.8352 16.1486C28.703 16.1779 28.6296 16.1779 28.5708 16.1486Z" fill="#31A8FF"/>
</svg>
