<svg width="80" height="80" viewBox="0 0 80 80" fill="none" xmlns="http://www.w3.org/2000/svg">
<path d="M76.7688 23.2312L66.7688 13.2312C66.2997 12.7621 65.6634 12.4985 65 12.4985C64.3366 12.4985 63.7004 12.7621 63.2313 13.2312C62.7621 13.7003 62.4986 14.3365 62.4986 14.9999C62.4986 15.6633 62.7621 16.2996 63.2313 16.7687L68.9656 22.4999H60C56.9372 22.6109 53.9265 23.3256 51.1406 24.6031C46.8844 26.5687 41.5063 30.7624 40.0344 39.6031C38.3719 49.5843 30.9406 51.8593 27.2219 52.3718C26.5662 49.3452 24.8103 46.6697 22.2945 44.8638C19.7787 43.0579 16.6821 42.2501 13.6048 42.5971C10.5274 42.9441 7.68842 44.421 5.6379 46.7418C3.58738 49.0625 2.47135 52.0618 2.50606 55.1585C2.54077 58.2552 3.72374 61.2287 5.82576 63.5029C7.92778 65.7771 10.7992 67.1901 13.8835 67.468C16.9679 67.7459 20.0456 66.869 22.5203 65.0071C24.995 63.1453 26.6904 60.4311 27.2781 57.3905C29.5257 57.1344 31.7214 56.5391 33.7906 55.6249C38.0469 53.7499 43.4375 49.5624 44.9656 40.4093C47.0781 27.7405 59.4813 27.4999 60 27.4999H68.9656L63.2313 33.2312C62.7621 33.7003 62.4986 34.3365 62.4986 34.9999C62.4986 35.6633 62.7621 36.2996 63.2313 36.7687C63.7004 37.2378 64.3366 37.5013 65 37.5013C65.6634 37.5013 66.2997 37.2378 66.7688 36.7687L76.7688 26.7687C77.0012 26.5365 77.1856 26.2608 77.3114 25.9573C77.4372 25.6538 77.502 25.3285 77.502 24.9999C77.502 24.6714 77.4372 24.3461 77.3114 24.0426C77.1856 23.7391 77.0012 23.4634 76.7688 23.2312ZM15 62.4999C13.5166 62.4999 12.0666 62.0601 10.8332 61.2359C9.59986 60.4118 8.63856 59.2405 8.07091 57.87C7.50325 56.4996 7.35472 54.9916 7.64411 53.5367C7.9335 52.0819 8.64781 50.7455 9.6967 49.6966C10.7456 48.6477 12.082 47.9334 13.5368 47.644C14.9917 47.3546 16.4997 47.5032 17.8701 48.0708C19.2406 48.6385 20.4119 49.5998 21.236 50.8331C22.0601 52.0665 22.5 53.5166 22.5 54.9999C22.5 56.9891 21.7098 58.8967 20.3033 60.3032C18.8968 61.7097 16.9891 62.4999 15 62.4999Z" fill="white"/>
</svg>
