<svg width="65" height="61" viewBox="0 0 65 61" fill="none" xmlns="http://www.w3.org/2000/svg">
<path d="M4.00263 6.00394C4.00263 4.4116 4.63519 2.88447 5.76115 1.75851C6.8871 0.632557 8.41423 0 10.0066 0H54.0355C55.6279 0 57.155 0.632557 58.2809 1.75851C59.4069 2.88447 60.0395 4.4116 60.0395 6.00394V34.0223C60.0395 35.6147 59.4069 37.1418 58.2809 38.2678C57.155 39.3937 55.6279 40.0263 54.0355 40.0263H32.021V36.0237H54.0355C54.5663 36.0237 55.0753 35.8128 55.4507 35.4375C55.826 35.0622 56.0368 34.5531 56.0368 34.0223V6.00394C56.0368 5.47316 55.826 4.96412 55.4507 4.5888C55.0753 4.21348 54.5663 4.00263 54.0355 4.00263H10.0066C9.47579 4.00263 8.96675 4.21348 8.59143 4.5888C8.21611 4.96412 8.00526 5.47316 8.00526 6.00394V12.0079H4.00263V6.00394ZM32.021 48.0315H62.0408C62.5716 48.0315 63.0806 47.8207 63.4559 47.4454C63.8312 47.0701 64.0421 46.561 64.0421 46.0302C64.0421 45.4995 63.8312 44.9904 63.4559 44.6151C63.0806 44.2398 62.5716 44.0289 62.0408 44.0289H32.021V48.0315ZM12.0079 48.0315C11.4771 48.0315 10.9681 48.2424 10.5927 48.6177C10.2174 48.993 10.0066 49.5021 10.0066 50.0329C10.0066 50.5636 10.2174 51.0727 10.5927 51.448C10.9681 51.8233 11.4771 52.0342 12.0079 52.0342H16.0105C16.5413 52.0342 17.0503 51.8233 17.4257 51.448C17.801 51.0727 18.0118 50.5636 18.0118 50.0329C18.0118 49.5021 17.801 48.993 17.4257 48.6177C17.0503 48.2424 16.5413 48.0315 16.0105 48.0315H12.0079ZM0 22.0145C0 20.4221 0.632557 18.895 1.75852 17.769C2.88447 16.6431 4.4116 16.0105 6.00395 16.0105H22.0145C23.6068 16.0105 25.1339 16.6431 26.2599 17.769C27.3859 18.895 28.0184 20.4221 28.0184 22.0145V54.0355C28.0184 55.6278 27.3859 57.155 26.2599 58.2809C25.1339 59.4069 23.6068 60.0394 22.0145 60.0394H6.00395C4.4116 60.0394 2.88447 59.4069 1.75852 58.2809C0.632557 57.155 0 55.6278 0 54.0355V22.0145ZM6.00395 20.0131C5.47316 20.0131 4.96412 20.224 4.5888 20.5993C4.21348 20.9746 4.00263 21.4837 4.00263 22.0145V54.0355C4.00263 54.5663 4.21348 55.0753 4.5888 55.4506C4.96412 55.826 5.47316 56.0368 6.00395 56.0368H22.0145C22.5452 56.0368 23.0543 55.826 23.4296 55.4506C23.8049 55.0753 24.0158 54.5663 24.0158 54.0355V22.0145C24.0158 21.4837 23.8049 20.9746 23.4296 20.5993C23.0543 20.224 22.5452 20.0131 22.0145 20.0131H6.00395Z" fill="black"/>
</svg>
