<svg width="501" height="458" viewBox="0 0 501 458" fill="none" xmlns="http://www.w3.org/2000/svg">
<g id="Shape-2">
<path id="Polygon" opacity="0.05" fill-rule="evenodd" clip-rule="evenodd" d="M99.8253 24.5861C105.509 18.9021 113.794 16.6822 121.559 18.7627L205.13 41.1555C212.894 43.2361 218.959 49.3009 221.04 57.0654L243.433 140.637C245.513 148.401 243.293 156.686 237.609 162.37L176.431 223.548C170.747 229.232 162.462 231.452 154.697 229.372L71.1263 206.979C63.3617 204.898 57.2969 198.834 55.2164 191.069L32.8235 107.498C30.743 99.7332 32.9629 91.4485 38.647 85.7645L99.8253 24.5861Z" fill="url(#paint0_linear_1_101)"/>
<path id="Polygon_2" opacity="0.05" fill-rule="evenodd" clip-rule="evenodd" d="M271.769 188.157C277.453 182.473 285.738 180.253 293.503 182.334L377.074 204.727C384.838 206.807 390.903 212.872 392.984 220.636L415.377 304.208C417.457 311.972 415.237 320.257 409.553 325.941L348.375 387.119C342.691 392.803 334.406 395.023 326.642 392.943L243.07 370.55C235.306 368.469 229.241 362.405 227.16 354.64L204.768 271.069C202.687 263.304 204.907 255.02 210.591 249.336L271.769 188.157Z" fill="url(#paint1_linear_1_101)"/>
<path id="Polygon_3" opacity="0.05" fill-rule="evenodd" clip-rule="evenodd" d="M317.158 -33.6483C322.843 -39.3323 331.127 -41.5522 338.892 -39.4717L422.463 -17.0789C430.228 -14.9984 436.292 -8.93355 438.373 -1.16897L460.766 82.4022C462.846 90.1668 460.626 98.4515 454.942 104.136L393.764 165.314C388.08 170.998 379.795 173.218 372.031 171.137L288.459 148.744C280.695 146.664 274.63 140.599 272.55 132.835L250.157 49.2634C248.076 41.4988 250.296 33.2141 255.98 27.5301L317.158 -33.6483Z" fill="url(#paint2_linear_1_101)"/>
</g>
<defs>
<linearGradient id="paint0_linear_1_101" x1="217.755" y1="-13.4269" x2="1.00122" y2="44.6521" gradientUnits="userSpaceOnUse">
<stop stop-color="white"/>
<stop offset="1" stop-color="white" stop-opacity="0.01"/>
</linearGradient>
<linearGradient id="paint1_linear_1_101" x1="389.699" y1="150.144" x2="172.945" y2="208.223" gradientUnits="userSpaceOnUse">
<stop stop-color="white"/>
<stop offset="1" stop-color="white" stop-opacity="0.01"/>
</linearGradient>
<linearGradient id="paint2_linear_1_101" x1="435.089" y1="-71.661" x2="218.335" y2="-13.582" gradientUnits="userSpaceOnUse">
<stop stop-color="white"/>
<stop offset="1" stop-color="white" stop-opacity="0.01"/>
</linearGradient>
</defs>
</svg>
