<svg width="593" height="489" viewBox="0 0 593 489" fill="none" xmlns="http://www.w3.org/2000/svg">
<g id="Shape-1">
<path id="Shape" opacity="0.05" fill-rule="evenodd" clip-rule="evenodd" d="M-164.287 343.7L455.226 177.702C463.518 175.481 472.365 177.857 478.428 183.934L552.388 258.068C558.429 264.124 560.791 272.938 558.587 281.203L531.603 382.385C529.39 390.679 522.917 397.161 514.625 399.382L-106.062 565.695L-164.287 343.7Z" fill="url(#paint0_linear_1_98)"/>
<path id="Shape_2" opacity="0.05" fill-rule="evenodd" clip-rule="evenodd" d="M-337.216 187.098L282.297 21.0997C290.588 18.8779 299.436 21.254 305.499 27.3313L379.458 101.465C385.5 107.521 387.862 116.335 385.657 124.6L358.673 225.782C356.461 234.076 349.987 240.558 341.695 242.78L-278.991 409.092L-337.216 187.098Z" fill="url(#paint1_linear_1_98)"/>
</g>
<defs>
<linearGradient id="paint0_linear_1_98" x1="532.527" y1="157.306" x2="-163.521" y2="343.812" gradientUnits="userSpaceOnUse">
<stop stop-color="white"/>
<stop offset="1" stop-color="white" stop-opacity="0.01"/>
</linearGradient>
<linearGradient id="paint1_linear_1_98" x1="359.598" y1="0.703496" x2="-336.45" y2="187.209" gradientUnits="userSpaceOnUse">
<stop stop-color="white"/>
<stop offset="1" stop-color="white" stop-opacity="0.01"/>
</linearGradient>
</defs>
</svg>
