<svg width="17" height="14" viewBox="0 0 17 14" fill="none" xmlns="http://www.w3.org/2000/svg">
<path d="M14.6771 4.0835C15.3021 3.61475 15.8646 3.05225 16.3021 2.396C15.7396 2.646 15.0833 2.8335 14.4271 2.896C15.1146 2.48975 15.6146 1.86475 15.8646 1.0835C15.2396 1.4585 14.5208 1.73975 13.8021 1.896C13.1771 1.23975 12.3333 0.864746 11.3958 0.864746C9.58334 0.864746 8.11459 2.3335 8.11459 4.146C8.11459 4.396 8.14584 4.646 8.20834 4.896C5.48959 4.73975 3.05209 3.42725 1.42709 1.4585C1.14584 1.92725 0.989594 2.48975 0.989594 3.11475C0.989594 4.23975 1.55209 5.23975 2.45834 5.8335C1.92709 5.80225 1.39584 5.67725 0.958344 5.42725V5.4585C0.958344 7.05225 2.08334 8.36475 3.58334 8.67725C3.33334 8.73975 3.02084 8.80225 2.73959 8.80225C2.52084 8.80225 2.33334 8.771 2.11459 8.73975C2.52084 10.0522 3.73959 10.9897 5.17709 11.021C4.05209 11.896 2.64584 12.4272 1.11459 12.4272C0.833344 12.4272 0.583344 12.396 0.333344 12.3647C1.77084 13.3022 3.48959 13.8335 5.36459 13.8335C11.3958 13.8335 14.6771 8.86475 14.6771 4.521C14.6771 4.36475 14.6771 4.23975 14.6771 4.0835Z" fill="#5A7184"/>
</svg>
